<?xml version="1.0" encoding="utf-8"?>
<!-- Svg Vector Icons : http://www.onlinewebfonts.com/icon -->
<!DOCTYPE svg PUBLIC "-//W3C//DTD SVG 1.1//EN" "http://www.w3.org/Graphics/SVG/1.1/DTD/svg11.dtd">
<svg version="1.1" xmlns="http://www.w3.org/2000/svg" xmlns:xlink="http://www.w3.org/1999/xlink" x="0px" y="0px" viewBox="0 0 1000 1000" enable-background="new 0 0 1000 1000" xml:space="preserve">
<metadata> Svg Vector Icons : http://www.onlinewebfonts.com/icon </metadata>
<g><g transform="translate(0.000000,511.000000) scale(0.100000,-0.100000)"><path d="M770.3,3256.4l-557.9-10.2l-55.2-57.2l-57.2-55.2V597.5v-2536.3l67.4-59.3l67.4-61.3l649.9,6.1l651.9,6.1l24.5-96.1c34.7-141,147.2-359.7,243.2-472.1c259.6-308.6,600.8-457.8,1003.5-437.4c333.1,14.3,600.8,139,833.8,380.1c124.7,130.8,280,421,302.5,564.1c10.2,77.7,18.4,92,47,77.7c42.9-22.5,2413.6-20.4,2458.6,0c26.6,14.3,34.7,2.1,47-67.4c8.2-47,51.1-157.4,94-243.2c357.6-717.4,1328.4-874.7,1898.6-310.6c151.2,149.2,230.9,275.9,296.3,466l45,128.8l457.8,10.2c496.6,10.2,525.2,18.4,584.5,134.9c32.7,61.3,36.8,1181.3,6.1,1491.9c-67.4,678.5-282,1489.9-562,2133.6c-374,860.4-811.4,1373.4-1295.7,1522.6c-126.7,40.9-200.3,40.9-3413,36.8C2803.8,3270.7,1074.8,3262.5,770.3,3256.4z M6772.7,1723.6v-1124h-664.2h-664.2v1124v1124h664.2h664.2V1723.6z M7911.1,2814.9c359.7-122.6,741.9-637.6,1056.6-1422.4c110.3-275.9,257.5-713.3,257.5-766.4c0-22.5-179.8-26.6-1001.4-26.6H7222.3v1124v1124h296.3C7737.4,2847.6,7839.5,2839.4,7911.1,2814.9z M1434.5,1719.5l-6.1-1109.7l-443.5-6.1l-445.5-4.1v1113.8v1113.8H989h449.6L1434.5,1719.5z M3216.7,1713.4V599.5h-674.4h-674.4v1113.8v1113.8h674.4h674.4V1713.4z M4994.7,1713.4V599.5l-668.3,4.1l-670.3,6.1l-6.1,1109.7l-4.1,1107.7h674.4h674.4V1713.4z M3079.7-1111.1c412.8-194.2,580.4-692.8,365.8-1095.4c-73.6-136.9-263.6-308.6-398.5-359.7c-302.5-112.4-594.7-57.2-829.7,153.3c-325,292.2-351.5,782.7-59.3,1101.5c186,204.4,369.9,282,633.5,267.7C2912.1-1049.8,2981.6-1066.1,3079.7-1111.1z M7966.2-1102.9c151.2-69.5,277.9-192.1,361.7-345.4c57.2-110.3,69.5-153.3,75.6-304.5c10.2-208.5-22.5-329-128.8-480.3c-202.3-284.1-574.3-398.5-893.1-275.9c-343.3,132.8-553.8,537.5-466,899.2c55.2,233,267.7,455.7,506.8,535.4C7584.1-1021.1,7813-1033.4,7966.2-1102.9z"/><path d="M2797.7-1673.1c-151.2-132.8-65.4-384.2,130.8-384.2c92,0,161.5,47,198.2,134.9C3210.5-1720.1,2961.2-1532.1,2797.7-1673.1z"/><path d="M7702.6-1673.1c-151.2-132.8-65.4-384.2,130.8-384.2c92,0,161.4,47,198.2,134.9C8115.4-1720.1,7866.1-1532.1,7702.6-1673.1z"/></g></g>
</svg>